
<svg width="512" height="512" xmlns="http://www.w3.org/2000/svg" xmlns:svg="http://www.w3.org/2000/svg" enable-background="new 0 0 512 512" version="1.1" xml:space="preserve">
 <g class="layer">
  <title>Layer 1</title>
  <g id="svg_1">
   <g id="svg_2">
    <path d="m445.06,123.57c-12.6,-12.22 -28.42,-20.26 -45.61,-23.37c-3.87,-24.92 -15.99,-47.86 -34.98,-65.74c-22.57,-21.25 -52.36,-32.95 -83.89,-32.95c-37.31,0 -71.87,16.42 -94.58,44.43c-4.19,-0.58 -8.43,-0.87 -12.69,-0.87c-21.31,0 -41.95,7.38 -58.11,20.78c-13.73,11.37 -23.52,26.46 -28.18,43.15c-27.94,14.68 -45.55,42.93 -45.55,74.22c0,36.18 23.64,67.12 56.75,79.12l0,35.86l33.39,0l0,-30.53l11.38,0c-0.02,0.6 -0.04,1.2 -0.04,1.8c0,21.84 13.31,40.62 32.23,48.67c0.89,13.56 7.35,25.62 17.1,33.93l0,22.9l33.39,0l0,-11.29c11.59,-0.42 22.16,-4.9 30.33,-12.05c8.17,7.15 18.74,11.63 30.33,12.05l0,11.29l33.39,0l0,-22.9c9.75,-8.31 16.2,-20.37 17.09,-33.93c18.94,-8.05 32.24,-26.83 32.24,-48.67c0,-0.6 -0.02,-1.2 -0.04,-1.8l11.38,0l0,30.53l33.39,0l0,-35.86c33.12,-12 56.75,-42.93 56.75,-79.12c0,-22.53 -9.05,-43.71 -25.47,-59.65zm-205.76,191.34c0,8.51 -6.92,15.43 -15.42,15.43c-6.52,0 -12.1,-4.09 -14.35,-9.83c9.71,-2.61 18.6,-7.97 25.47,-15.56l-24.75,-22.42c-3.75,4.14 -8.87,6.41 -14.44,6.41c-10.74,0 -19.47,-8.73 -19.47,-19.47c0,-0.12 0.02,-0.23 0.02,-0.35c6.02,2.4 12.58,3.73 19.45,3.73l0,-33.39c-10.73,0 -19.47,-8.74 -19.47,-19.47c0,-6.65 3.41,-12.58 8.59,-16.11c5.47,7.28 12.96,13.06 21.81,16.38l11.73,-31.26c-5.99,-2.25 -10.01,-8.05 -10.01,-14.45c0,-8.51 6.92,-15.42 15.43,-15.42s15.42,6.92 15.42,15.42l0,140.36l-0.01,0zm76.89,-25.97c-5.56,0 -10.69,-2.27 -14.43,-6.4l-24.75,22.41c6.87,7.58 15.75,12.95 25.47,15.57c-2.25,5.74 -7.83,9.82 -14.36,9.82c-8.51,0 -15.42,-6.92 -15.42,-15.43l0,-140.36c0,-8.51 6.92,-15.42 15.42,-15.42c8.5,0 15.42,6.92 15.42,15.42c0,6.4 -4.02,12.2 -10.01,14.45l11.73,31.26c8.85,-3.32 16.35,-9.1 21.82,-16.38c5.18,3.53 8.58,9.46 8.58,16.11c0,10.73 -8.73,19.47 -19.47,19.47l0,33.39c6.87,0 13.43,-1.33 19.46,-3.73c0,0.12 0.01,0.24 0.01,0.35c0,10.74 -8.73,19.47 -19.47,19.47zm67.1,-54.66l-16.22,0c1.28,-4.55 1.98,-9.34 1.98,-14.29c0,-21.64 -13.25,-40.55 -32.23,-48.65c-1.66,-25.43 -22.87,-45.6 -48.7,-45.6c-12.29,0 -23.53,4.57 -32.12,12.1c-8.59,-7.53 -19.83,-12.1 -32.12,-12.1c-25.83,0 -47.03,20.17 -48.69,45.6c-18.99,8.1 -32.24,27.01 -32.24,48.65c0,4.95 0.7,9.74 1.98,14.29l-16.22,0c-29.69,0 -53.85,-22.91 -53.85,-51.06c0,-20.56 12.91,-39.03 32.88,-47.05l8.73,-3.51l1.52,-9.29c4.18,-25.6 27.96,-44.91 55.32,-44.91c5.26,0 10.46,0.69 15.45,2.05l11.65,3.16l6.66,-10.06c16.02,-24.24 43.51,-38.71 73.51,-38.71c22.98,0 44.65,8.48 61,23.88c16.15,15.2 25.31,35.47 25.8,57.06l0.36,16.15l16.16,0.17c29.36,0.31 53.24,23.21 53.24,51.06c0,28.15 -24.15,51.06 -53.85,51.06z" fill="#304ffe" id="svg_3"/>
   </g>
  </g>
  <g id="svg_4">
   <g id="svg_5">
    <path d="m98.22,331.59l0,16.7l-14.82,0c-6.55,-15.66 -22.02,-26.68 -40.02,-26.68c-23.92,0 -43.38,19.46 -43.38,43.37c0,23.92 19.46,43.38 43.38,43.38c18,0 33.47,-11.03 40.02,-26.68l48.21,0l0,-50.09l-33.39,0zm-54.84,43.38c-5.51,0 -9.99,-4.48 -9.99,-9.99s4.48,-9.98 9.99,-9.98s9.98,4.48 9.98,9.98s-4.48,9.99 -9.98,9.99z" fill="#304ffe" id="svg_6"/>
   </g>
  </g>
  <g id="svg_7">
   <g id="svg_8">
    <path d="m468.63,321.61c-18.01,0 -33.48,11.02 -40.03,26.68l-14.82,0l0,-16.7l-33.39,0l0,50.09l48.21,0c6.55,15.65 22.02,26.68 40.02,26.68c23.92,0 43.38,-19.46 43.38,-43.38c0,-23.91 -19.46,-43.37 -43.37,-43.37zm0,53.36c-5.51,0 -9.99,-4.48 -9.99,-9.99s4.48,-9.98 9.99,-9.98s9.98,4.48 9.98,9.98s-4.48,9.99 -9.98,9.99z" fill="#304ffe" id="svg_9"/>
   </g>
  </g>
  <g id="svg_10">
   <g id="svg_11">
    <path d="m225.67,427.09l0,-18.73l-33.39,0l0,18.73c-15.66,6.55 -26.68,22.02 -26.68,40.02c0,23.92 19.45,43.38 43.37,43.38c23.92,0 43.38,-19.46 43.38,-43.38c0,-18 -11.03,-33.47 -26.68,-40.02zm-16.7,50.01c-5.5,0 -9.98,-4.48 -9.98,-9.98s4.48,-9.99 9.98,-9.99s9.99,4.48 9.99,9.99c0,5.5 -4.48,9.98 -9.99,9.98z" fill="#304ffe" id="svg_12"/>
   </g>
  </g>
  <g id="svg_13">
   <g id="svg_14">
    <path d="m319.72,427.09l0,-18.73l-33.39,0l0,18.73c-15.65,6.55 -26.68,22.02 -26.68,40.02c0,23.92 19.46,43.38 43.38,43.38c23.92,0 43.37,-19.46 43.37,-43.38c0,-18 -11.02,-33.47 -26.68,-40.02zm-16.69,50.01c-5.51,0 -9.99,-4.48 -9.99,-9.98s4.48,-9.99 9.99,-9.99s9.98,4.48 9.98,9.99c0,5.5 -4.48,9.98 -9.98,9.98z" fill="#304ffe" id="svg_15"/>
   </g>
  </g>
 </g>
</svg>
